<?xml version="1.0" encoding="UTF-8" standalone="no"?>
<svg
   width="260.32684"
   height="256.19016"
   viewBox="0 0 260.32684 256.19015"
   version="1.1"
   id="svg3"
   sodipodi:docname="websiteLogo.svg"
   inkscape:version="1.3.2 (091e20e, 2023-11-25)"
   xmlns:inkscape="http://www.inkscape.org/namespaces/inkscape"
   xmlns:sodipodi="http://sodipodi.sourceforge.net/DTD/sodipodi-0.dtd"
   xmlns="http://www.w3.org/2000/svg"
   xmlns:svg="http://www.w3.org/2000/svg">
  <defs
     id="defs3" />
  <sodipodi:namedview
     id="namedview3"
     pagecolor="#ffffff"
     bordercolor="#cccccc"
     borderopacity="1"
     inkscape:showpageshadow="0"
     inkscape:pageopacity="1"
     inkscape:pagecheckerboard="0"
     inkscape:deskcolor="#d1d1d1"
     inkscape:zoom="1.8746502"
     inkscape:cx="91.217016"
     inkscape:cy="114.42135"
     inkscape:window-width="1920"
     inkscape:window-height="1080"
     inkscape:window-x="1512"
     inkscape:window-y="0"
     inkscape:window-maximized="0"
     inkscape:current-layer="g3">
    <inkscape:page
       x="0"
       y="0"
       width="260.32684"
       height="256.19016"
       id="page3"
       margin="0 0 0 0"
       bleed="0" />
  </sodipodi:namedview>
  <g
     id="g3"
     transform="translate(-21.870747,-16.002985)">
    <path
       d="m 253.82,262.82 c 0.25,1.71 -0.18,2.18 -2,2.16 -5.89,-0.06 -15.05,-7.26 -19.24,-15.12 -3.25,-6.12 -8.79,-12.35 -12.86,-14.48 -3.26,-1.71 -4.72,-1.11 -4.72,1.93 0.01,1.2 -0.77,4.36 -1.72,7.02 -1.7,4.74 -1.69,4.9 0.49,8.7 2.69,4.67 2.84,6.97 0.45,6.97 -3.16,0 -5.91,-2.81 -7.18,-7.34 -1.1,-3.95 -1.01,-4.94 0.86,-9.17 2.99,-6.76 2.73,-12.9 -0.84,-20.08 -1.62,-3.25 -3.85,-8.05 -4.96,-10.66 -1.15,-2.68 -2.69,-4.75 -3.54,-4.75 -0.83,0 -3.3,2.26 -5.48,5.02 -5.31,6.72 -6.22,12.28 -3.08,18.99 2.35,5 2.19,9.99 -0.32,9.99 -1.99,0 -3.68,-2.17 -3.68,-4.73 0,-2.92 -2.6,-9.27 -3.79,-9.27 -0.49,0 -2.68,1.75 -4.87,3.9 -3.12,3.06 -4.53,3.79 -6.59,3.39 -2.73,-0.52 -4.03,-2.38 -3.2,-4.56 0.27,-0.7 2.7,-2.06 5.39,-3.02 3.54,-1.25 5.76,-2.9 7.98,-5.92 4.79,-6.51 4.44,-6.9 -5.67,-6.18 -5.78,0.41 -9.87,1.26 -12.06,2.51 -4,2.27 -6.06,2.39 -6.83,0.37 -0.83,-2.15 1.45,-4.51 6.51,-6.75 3.4,-1.51 5.54,-1.79 9.67,-1.28 7.28,0.91 13.08,-0.85 17.56,-5.33 5.88,-5.87 7.31,-14.31 4.35,-25.67 -2.47,-9.49 -7.14,-16.52 -19.28,-29.03 l -11.33,-11.68 -8.97,0.71 c -10.88,0.85 -17.72,-0.92 -23.87,-6.19 -5.25,-4.5 -7.89,-9.78 -8.39,-16.77 -0.45,-6.31 -2.29,-9.05 -6.71,-10.02 -5.57,-1.23 -9.09,0.42 -15.45,7.23 -6.86,7.34 -9.7,8.36 -21.81,7.8 -12.65,-0.59 -11.39,-4.61 1.37,-4.34 7.41,0.16 10.33,-0.65 13.41,-3.73 3.15,-3.15 1.9,-4.17 -5.94,-4.91 -4.94,-0.46 -9.17,-0.28 -12.34,0.53 -5.42,1.39 -10.14,0.65 -10.14,-1.58 0,-1.63 0.39,-1.74 7.21,-1.89 5.94,-0.14 7.86,-1.75 5.37,-4.5 -0.98,-1.08 -1.48,-2.44 -1.12,-3.03 1.22,-1.97 4.15,-1.08 6.37,1.92 3.04,4.11 7.56,6.29 11.49,5.54 4.77,-0.92 12.5,-4.62 13.14,-6.28 0.73,-1.9 -4.24,-9.98 -7.73,-12.59 -1.74,-1.3 -4.77,-2.17 -8.51,-2.44 -5.72,-0.41 -8.45,0.11 -17.16,3.29 -4.66,1.7 -9.48,1.27 -8.8,-0.78 0.22,-0.67 2.08,-1.48 4.12,-1.82 6.13,-0.99 6.49,-2.54 0.98,-4.09 -7.8,-2.21 -4.16,-4.33 3.89,-2.28 3.46,0.88 3.51,-0.31 0.23,-5.16 -2.98,-4.38 -2.79,-5.76 0.85,-6.19 2.22,-0.26 2.67,0.08 2.67,2.03 0,5.67 6,9.79 14.25,9.79 6.9,0 13.3,3.85 17.06,10.26 5.3,9.05 13.27,12.93 18.53,9.02 5.55,-4.13 3.91,-8.42 -5.63,-14.71 -7.89,-5.21 -9.75,-7.98 -11.14,-16.6 -1.44,-8.94 -4.54,-11.96 -13.21,-12.87 -7.69,-0.8 -15.21,-4.57 -15.68,-7.87 -0.44,-3.09 2.25,-3.87 5.45,-1.59 6.42,4.56 8.07,5.35 11.15,5.35 4.22,0.01 4.86,-1.8 2.21,-6.29 -2.54,-4.3 -2.39,-10.44 0.29,-12.1 2.33,-1.44 3.68,0.59 3.7,5.58 0.02,4.87 1.08,7.44 5.38,13.07 3.53,4.63 5.93,10.68 7.12,18.01 0.7,4.26 5.21,9.37 10.57,11.97 4.77,2.31 5.93,1.02 5.23,-5.81 -0.38,-3.65 0.01,-7.58 1.16,-11.83 1.54,-5.69 1.57,-6.68 0.24,-9.23 -2.12,-4.12 -4.59,-6.02 -9.49,-7.32 -3.86,-1.03 -4.28,-1.43 -4,-3.84 0.48,-4.13 3.13,-3.78 9.29,1.24 3.08,2.51 6.04,4.56 6.58,4.56 0.55,0 1.39,-1.07 1.89,-2.37 0.84,-2.22 0.67,-3.48 -1.85,-13.17 -1.13,-4.33 0.32,-7.68 3.14,-7.28 2.03,0.29 2.32,1.02 2.83,7.32 0.31,3.85 0.92,7.81 1.37,8.79 0.75,1.68 0.93,1.69 2.65,0.13 2.37,-2.15 4.91,-1.15 4.91,1.93 0,1.7 -0.83,2.75 -2.82,3.58 -3.44,1.42 -9.86,14.11 -10.67,21.07 -0.77,6.67 3.05,17.16 6.71,18.42 2.14,0.75 3.15,0.56 4.75,-0.89 1.65,-1.49 2.03,-3.09 2.04,-8.43 0.01,-8.16 2.93,-14.86 8.95,-20.6 7.9,-7.52 8.66,-11.36 4.04,-20.5 -3.3,-6.55 -3.85,-12.01 -1.43,-14.43 3.32,-3.31 5.92,-0.45 4.93,5.42 -0.56,3.32 -0.19,5.01 2.04,9.28 1.49,2.88 3.2,5.53 3.78,5.91 2.67,1.7 10.19,-5.12 12.59,-11.43 1.11,-2.94 4.48,-3.78 5.41,-1.36 0.99,2.57 -3.56,9.76 -8.72,13.78 -2.81,2.19 -9.04,7.86 -13.86,12.59 -7.09,6.98 -9.06,9.58 -10.35,13.68 -1.29,4.09 -1.38,5.87 -0.48,9.21 0.61,2.28 1.82,4.42 2.68,4.75 2.19,0.83 6.22,-3.49 11.18,-11.99 4.24,-7.28 8.94,-12.23 15.42,-16.22 2.97,-1.84 4.06,-3.41 5.5,-7.99 1.42,-4.47 2.29,-5.77 4.06,-6.02 2.74,-0.39 2.98,1.78 0.6,5.41 -1.17,1.79 -1.34,2.82 -0.57,3.59 3.32,3.32 14.57,-5.79 15.69,-12.71 0.89,-5.52 1.83,-6.92 4.88,-7.29 2.41,-0.28 2.65,0 2.65,3.06 0,2.03 -1.2,5.25 -3,8.1 -1.65,2.6 -3,5.4 -3,6.22 0,3.35 6.36,3.96 19.34,1.83 3.59,-0.59 3.81,-0.48 3.5,1.71 -0.51,3.56 -8.43,5.57 -15.9,4.04 -8.53,-1.75 -14.28,-1.38 -22.9,1.47 -7.93,2.62 -12.88,6.23 -11.53,8.41 0.48,0.77 2.18,0.95 4.97,0.53 2.87,-0.42 5.68,-0.1 8.64,1 6.86,2.57 9.51,2.78 12.97,1.05 4.4,-2.19 6.91,-2.06 6.91,0.35 0,1.37 -1.43,2.59 -4.75,4.07 -5.1,2.27 -8.17,2.2 -14.75,-0.37 -5.49,-2.14 -14.07,-2.03 -19.1,0.26 -3.14,1.42 -5.33,3.69 -9.31,9.65 -5.87,8.77 -6.01,10.75 -1.13,15.94 1.55,1.65 3.54,4.44 4.43,6.2 2.33,4.62 2.09,14.3 -0.49,20.3 -3.01,7.02 -1.64,10.39 8.56,21 4.5,4.68 9.61,10.37 11.36,12.65 4.84,6.3 8.91,16.02 10.13,24.2 1.6,10.67 4.23,14.65 13.29,20.06 5.17,3.09 14.76,12.49 14.76,14.46 0,3.56 -7.48,0.57 -11.02,-4.39 -2.36,-3.32 -11.6,-9.98 -13.85,-9.98 -2.05,0 -0.94,6.45 2.4,13.89 3.19,7.1 8.24,12.09 14.76,14.58 3.97,1.52 5.48,1.6 11.12,0.62 10.6,-1.85 19.53,1.4 15.35,5.58 -1.35,1.35 -1.86,1.33 -4.8,-0.19 -2.36,-1.22 -4.92,-1.58 -9.1,-1.28 -6.55,0.48 -7.75,1.16 -6.25,3.55 2.28,3.61 6.15,5.26 15.89,6.76 20.52,3.17 22.12,3.7 20.9,6.9 -0.8,2.08 -6.52,2.09 -10.53,0.03 -3.81,-1.98 -18.09,-4.55 -19.21,-3.46 -2.08,1.99 5.42,9.42 11.02,10.91 1.83,0.48 2.93,1.51 3.14,2.93 z M 78.24,221.5 72.01,234 H 37.07 l 1.85,-4.25 c 1.02,-2.34 6.87,-14.6 13,-27.25 6.13,-12.65 16.63,-34.33 23.34,-48.18 l 12.18,-25.18 4.3,-1.21 c 6.3,-1.76 12.82,-6.27 15.73,-10.88 2.02,-3.2 3.16,-4.05 5.42,-4.05 3.75,0 4.41,1.04 6.51,10.24 0.57,2.51 1.03,4.26 1.12,6.03 0.26,4.76 -2.07,9.66 -11.63,29.77 -0.49,1.02 -0.99,2.08 -1.51,3.18 -6.26,13.16 -11.38,24.12 -11.38,24.36 0,0.23 12.12,0.42 26.93,0.42 h 26.92 l 1.66,3.25 c 0.92,1.79 2.73,5.62 4.03,8.51 l 2.36,5.26 -4.92,2.49 -4.91,2.49 H 84.46 Z m 63.06,-95.46 c 2.15,1.31 5.01,1.95 8.7,1.95 7.27,0 11.49,-2.57 14.18,-8.67 1.76,-3.97 1.89,-5.16 0.9,-8.46 -2.19,-7.31 -7.19,-10.86 -15.28,-10.86 -7.07,0 -11.95,3.21 -14.33,9.43 -2.58,6.77 -0.47,12.77 5.83,16.61 z"
       fill="#161616"
       id="path1" />
    <path
       d="m 141.3,126.04 c -6.3,-3.84 -8.41,-9.84 -5.83,-16.61 2.38,-6.22 7.26,-9.43 14.33,-9.43 8.09,0 13.09,3.55 15.28,10.86 0.99,3.3 0.86,4.49 -0.9,8.46 -2.69,6.1 -6.91,8.67 -14.18,8.67 -3.69,0 -6.55,-0.64 -8.7,-1.95 z M 155,107.89 c 0,1.43 0.46,1.87 1.54,1.46 1.71,-0.66 1.5,-2.5 -0.35,-3.12 -0.66,-0.22 -1.19,0.52 -1.19,1.66 z M 141,120 c 0,0.55 0.68,1 1.5,1 0.82,0 1.5,-0.45 1.5,-1 0,-0.55 -0.68,-1 -1.5,-1 -0.82,0 -1.5,0.45 -1.5,1 z m 5.15,-2.95 c -0.22,0.66 0.14,1.02 0.8,0.8 0.66,-0.22 1.17,-0.73 1.12,-1.13 -0.12,-1.19 -1.49,-0.96 -1.92,0.33 z"
       fill="rgb(157,91,85)"
       id="path2"
       style="fill:#aa0000" />
  </g>
</svg>
